<svg width="97" height="72" viewBox="0 0 97 72" fill="none" xmlns="http://www.w3.org/2000/svg">
<g clip-path="url(#clip0_218_144)">
<path fill-rule="evenodd" clip-rule="evenodd" d="M0 0H96.338V72H0V0Z" fill="#F7FCFF"/>
<path fill-rule="evenodd" clip-rule="evenodd" d="M0 44.001V50.001H96.338V44.001H0ZM0 54.999V60.999H96.338V54.999H0ZM0 21.999V27.999H96.338V21.999H0ZM0 66V72H96.338V66H0ZM0 33V39H96.338V33H0ZM0 0V6H96.338V0H0ZM0 11.001V17.001H96.338V11.001H0Z" fill="#E31D1C"/>
<path d="M0 0H60.2113V39H0V0Z" fill="#2E42A5"/>
<path fill-rule="evenodd" clip-rule="evenodd" d="M5.18433 8.81708L2.99866 10.3441L3.73625 7.62608L1.79443 5.90408H4.33234L5.18132 3.68408L6.17781 5.90408H8.3394L6.64144 7.62608L7.29774 10.3441L5.18433 8.81708ZM17.2266 8.81708L15.0409 10.3441L15.7785 7.62608L13.8397 5.90408H16.3746L17.2236 3.68408L18.2201 5.90408H20.3817L18.6837 7.62608L19.34 10.3441L17.2266 8.81708ZM27.0832 10.3441L29.2688 8.81408L31.3823 10.3441L30.7259 7.62608L32.4239 5.90408H30.2623L29.2658 3.68408L28.4168 5.90408H25.882L27.8208 7.62608L27.0832 10.3441ZM41.3111 8.81408L39.1254 10.3441L39.863 7.62608L37.9242 5.90408H40.4591L41.3081 3.68408L42.3046 5.90408H44.4662L42.7682 7.62608L43.4245 10.3441L41.3111 8.81408ZM2.99866 22.3471L5.18433 20.8171L7.29774 22.3471L6.64144 19.6291L8.3394 17.9071H6.17781L5.18132 15.6871L4.33234 17.9071H1.79443L3.73625 19.6291L2.99866 22.3471ZM17.2266 20.8171L15.0409 22.3471L15.7785 19.6291L13.8397 17.9071H16.3746L17.2236 15.6871L18.2201 17.9071H20.3817L18.6837 19.6291L19.34 22.3471L17.2266 20.8171ZM27.0832 22.3471L29.2688 20.8171L31.3823 22.3471L30.7259 19.6291L32.4239 17.9071H30.2623L29.2658 15.6871L28.4168 17.9071H25.882L27.8208 19.6291L27.0832 22.3471ZM41.3111 20.8171L39.1254 22.3471L39.863 19.6291L37.9242 17.9071H40.4591L41.3081 15.6871L42.3046 17.9071H44.4662L42.7682 19.6291L43.4245 22.3471L41.3111 20.8171ZM2.99866 34.3471L5.18433 32.8171L7.29774 34.3471L6.64144 31.6291L8.3394 29.9071H6.17781L5.18132 27.6871L4.33234 29.9071H1.79443L3.73625 31.6291L2.99866 34.3471ZM17.2266 32.8171L15.0409 34.3471L15.7785 31.6291L13.8397 29.9071H16.3746L17.2236 27.6871L18.2201 29.9071H20.3817L18.6837 31.6291L19.34 34.3471L17.2266 32.8171ZM27.0832 34.3471L29.2688 32.8171L31.3823 34.3471L30.7259 31.6291L32.4239 29.9071H30.2623L29.2658 27.6871L28.4168 29.9071H25.882L27.8208 31.6291L27.0832 34.3471ZM41.3111 32.8171L39.1254 34.3471L39.863 31.6291L37.9242 29.9071H40.4591L41.3081 27.6871L42.3046 29.9071H44.4662L42.7682 31.6291L43.4245 34.3471L41.3111 32.8171ZM51.1677 10.3471L53.3533 8.81708L55.4668 10.3471L54.8105 7.62908L56.5084 5.90708H54.3468L53.3503 3.68708L52.5013 5.90708H49.9634L51.9053 7.62908L51.1677 10.3471ZM53.3533 20.8171L51.1677 22.3471L51.9053 19.6291L49.9634 17.9071H52.5013L53.3503 15.6871L54.3468 17.9071H56.5084L54.8105 19.6291L55.4668 22.3471L53.3533 20.8171ZM51.1677 34.3471L53.3533 32.8171L55.4668 34.3471L54.8105 31.6291L56.5084 29.9071H54.3468L53.3503 27.6871L52.5013 29.9071H49.9634L51.9053 31.6291L51.1677 34.3471ZM11.2055 14.8141L9.01979 16.3441L9.75737 13.6261L7.81556 11.9041H10.3535L11.2024 9.68408L12.1989 11.9041H14.3605L12.6626 13.6261L13.3189 16.3441L11.2055 14.8141ZM21.062 16.3441L23.2477 14.8141L25.3611 16.3441L24.7048 13.6261L26.4028 11.9041H24.2412L23.2447 9.68408L22.3957 11.9041H19.8578L21.7996 13.6261L21.062 16.3441ZM35.29 14.8141L33.1043 16.3441L33.8419 13.6261L31.9031 11.9041H34.438L35.287 9.68408L36.2834 11.9041H38.445L36.7471 13.6261L37.4034 16.3441L35.29 14.8141ZM9.01979 28.3441L11.2055 26.8141L13.3189 28.3441L12.6626 25.6261L14.3605 23.9041H12.1989L11.2024 21.6841L10.3535 23.9041H7.81556L9.75737 25.6261L9.01979 28.3441ZM23.2477 26.8141L21.062 28.3441L21.7996 25.6261L19.8608 23.9041H22.3957L23.2447 21.6841L24.2412 23.9041H26.4028L24.7048 25.6261L25.3611 28.3441L23.2477 26.8141ZM33.1043 28.3441L35.29 26.8141L37.4034 28.3441L36.7471 25.6261L38.445 23.9041H36.2834L35.287 21.6841L34.438 23.9041H31.9031L33.8419 25.6261L33.1043 28.3441ZM47.3322 14.8141L45.1465 16.3441L45.8841 13.6261L43.9453 11.9041H46.4802L47.3292 9.68408L48.3257 11.9041H50.4873L48.7893 13.6261L49.4456 16.3441L47.3322 14.8141ZM45.1465 28.3441L47.3322 26.8141L49.4456 28.3441L48.7893 25.6261L50.4873 23.9041H48.3257L47.3292 21.6841L46.4802 23.9041H43.9453L45.8841 25.6261L45.1465 28.3441Z" fill="#F7FCFF"/>
</g>
<defs>
<clipPath id="clip0_218_144">
<rect width="96.338" height="72" fill="white"/>
</clipPath>
</defs>
</svg>
