<svg xmlns="http://www.w3.org/2000/svg" xmlns:xlink="http://www.w3.org/1999/xlink" width="1003.62" height="237.07" viewBox="0 0 1003.62 237.07">
  <defs>
    <clipPath id="clip-Custom_Size_1">
      <rect width="1003.62" height="237.07"/>
    </clipPath>
  </defs>
  <g id="Custom_Size_1" data-name="Custom Size – 1" clip-path="url(#clip-Custom_Size_1)">
    <g id="Group_4" data-name="Group 4">
      <g id="Group_2" data-name="Group 2">
        <g id="Group_1" data-name="Group 1">
          <path id="Path_1" data-name="Path 1" d="M287.778,111.893a69.542,69.542,0,0,0-4.1-24.7,50.741,50.741,0,0,0-11.323-17.962,48.736,48.736,0,0,0-17.235-11.119,62.7,62.7,0,0,0-22.209-3.824,63.927,63.927,0,0,0-25.727,4.962,56.891,56.891,0,0,0-19.2,13.431A58.517,58.517,0,0,0,175.9,92.658,72.046,72.046,0,0,0,171.64,117.4c0,11.342,1.639,21.431,4.891,29.955a61.424,61.424,0,0,0,13.314,21.394,54.7,54.7,0,0,0,19.746,12.986c11.111,4.287,24.515,5.469,39.055,3.4a70.584,70.584,0,0,0,14.175-3.438,63.881,63.881,0,0,0,13.26-6.459,49.778,49.778,0,0,0,9.447-7.838l-7.572-9.507a4.577,4.577,0,0,0-1.539-1.435,3.877,3.877,0,0,0-1.778-.372,9.263,9.263,0,0,0-4.571,1.41c-2.091,1.2-4.553,2.565-7.56,4.1a65.461,65.461,0,0,1-10.5,4.32,48.55,48.55,0,0,1-14.618,1.989c-11.571,0-21.043-3.626-28.131-10.705-7.023-7.02-11.1-18-12.141-32.594l-.234-3.634h86.826a6.414,6.414,0,0,0,2.354-.341,1.3,1.3,0,0,0,.709-.619,6.876,6.876,0,0,0,.716-2.466,44.782,44.782,0,0,0,.293-5.651m-22.327-3.687H197.233l.58-3.9c1.6-10.494,5.368-18.763,11.185-24.608,5.962-5.947,14.255-8.994,24.585-8.994a34.3,34.3,0,0,1,13.982,2.719,29.218,29.218,0,0,1,10.143,7.549,31.082,31.082,0,0,1,5.881,10.98,43.863,43.863,0,0,1,1.862,12.857Z" fill="#79257b"/>
          <path id="Path_2" data-name="Path 2" d="M369.432,114.758a14.9,14.9,0,0,0-3.049-4.578,13.544,13.544,0,0,0-4.52-2.982,13.248,13.248,0,0,0-5.564-1.152,14.607,14.607,0,0,0-10.227,4.16,13.758,13.758,0,0,0-3.031,4.525,15.058,15.058,0,0,0-1.068,5.547,14.519,14.519,0,0,0,1.085,5.618,13.524,13.524,0,0,0,3.014,4.452,14.524,14.524,0,0,0,4.561,2.973,15.454,15.454,0,0,0,11.265-.014,14.1,14.1,0,0,0,4.508-2.952,14.546,14.546,0,0,0,3.026-4.479,13.727,13.727,0,0,0,1.111-5.6,13.575,13.575,0,0,0-1.111-5.52" fill="#79257b"/>
          <path id="Path_3" data-name="Path 3" d="M462.559,219.92A55.953,55.953,0,0,0,473.4,199.66a95.08,95.08,0,0,0,3.7-27.537V54.485H451.055V172.922a77.958,77.958,0,0,1-2.119,19.456,36.656,36.656,0,0,1-6.745,14.044A27.1,27.1,0,0,1,430.6,214.71a47.5,47.5,0,0,1-25.125,1.385c-4.549-1.164-6.61-.731-7.151-.24a2.356,2.356,0,0,0-.68,1.657l-1.505,17.034c3.474.745,6.818,1.306,9.947,1.673a105.882,105.882,0,0,0,13.336.851c9.635,0,18.17-1.533,25.369-4.52a47.121,47.121,0,0,0,17.766-12.63" fill="#79257b"/>
          <path id="Path_4" data-name="Path 4" d="M949.912,111.893a69.282,69.282,0,0,0-4.1-24.7,51.311,51.311,0,0,0-11.325-17.962,48.541,48.541,0,0,0-17.211-11.119,62.787,62.787,0,0,0-22.216-3.824,64.007,64.007,0,0,0-25.737,4.962A57.5,57.5,0,0,0,850.1,72.678a59.328,59.328,0,0,0-12.084,19.98,71.678,71.678,0,0,0-4.248,24.741c0,11.323,1.642,21.4,4.9,29.97a61.4,61.4,0,0,0,13.283,21.374,55.37,55.37,0,0,0,19.77,12.991c11.134,4.3,24.511,5.483,39.052,3.4a69.559,69.559,0,0,0,14.155-3.438,63.645,63.645,0,0,0,13.3-6.459,50.887,50.887,0,0,0,9.457-7.838l-7.607-9.507a4.843,4.843,0,0,0-1.508-1.421c-1.256-.637-4.2-.218-6.355,1.024-2.106,1.177-4.574,2.565-7.571,4.1a66.469,66.469,0,0,1-10.5,4.32,48.772,48.772,0,0,1-14.632,1.989c-11.579,0-21.03-3.626-28.106-10.705-7.047-7.008-11.141-18-12.148-32.575l-.241-3.653h86.813a6.229,6.229,0,0,0,2.361-.341,1.339,1.339,0,0,0,.713-.593,6.616,6.616,0,0,0,.715-2.492,48.223,48.223,0,0,0,.287-5.651m-22.344-3.687H859.355l.622-3.91c1.541-10.446,5.271-18.708,11.154-24.583,5.974-5.963,14.25-9.01,24.578-9.01a34.183,34.183,0,0,1,13.978,2.719,28.784,28.784,0,0,1,10.137,7.549,30.45,30.45,0,0,1,5.883,10.98,42.824,42.824,0,0,1,1.861,12.857Z" fill="#79257b"/>
          <path id="Path_5" data-name="Path 5" d="M789.912,54.45a6.151,6.151,0,0,0-3.791,1.1A5.732,5.732,0,0,0,784,58.318l-27.619,74.638-9.469,25.99-8.182-22.483v.031l-3.08-8.456L710.459,58.356a5.222,5.222,0,0,0-2.145-2.784,6.9,6.9,0,0,0-4.14-1.122H681.756l51.98,130.725h25.377L810.992,54.45Z" fill="#79257b"/>
          <path id="Path_6" data-name="Path 6" d="M612.807,164.626c6-7.5,11.894-9,19.484-9,1.617,0,3.279.037,4.957.13l.613.044c1.42.048,2.877.1,4.352.1l2.107.035V54.485H619.865V127.43a45.482,45.482,0,0,1-2.138,14.423,31.222,31.222,0,0,1-6.282,11.06,29.209,29.209,0,0,1-10.109,7.1,39.146,39.146,0,0,1-26.932,0,27.881,27.881,0,0,1-10.047-7.171,31.7,31.7,0,0,1-6.25-11.066,44.9,44.9,0,0,1-2.173-14.422V54.485H531.512v75.557c0,19.42,6.783,34.08,20.715,44.83a53.311,53.311,0,0,0,12.078,6.822l1.463.584c4.113,1.663,7.947,3.226,14.767,3.226,19.014,0,22.551-4.7,27.121-12.929a54.076,54.076,0,0,1,5.151-7.949" fill="#79257b"/>
          <path id="Path_7" data-name="Path 7" d="M97.108,121.139c-.451-.679-.89-1.366-1.348-2.043l-.091-.152c-.875-1.312-1.751-2.585-2.7-3.845L93,115.08a1.162,1.162,0,0,1-.1-.165c-.252-.311-.527-.627-.785-.945-.093-.107-.2-.232-.291-.352A35.356,35.356,0,0,0,78.07,104.4l.336-.111-.013-.038.861-.268,5.631-2.154A65.006,65.006,0,0,0,101.944,93.8a50.207,50.207,0,0,0,12.279-11.4,48.059,48.059,0,0,0,7.555-14.4,54.318,54.318,0,0,0,2.639-17,54.313,54.313,0,0,0-3.842-20.786,39.579,39.579,0,0,0-11.868-15.7C103.209,10,95.944,6.446,87.185,3.9,78.2,1.319,67.141,0,54.34,0H0V185.083H25.777V108.608H46.643c4.536,0,8.043.685,10.708,2.12a19.514,19.514,0,0,1,7.013,6.778L105.5,180.179a11.059,11.059,0,0,0,3.8,3.7,10.916,10.916,0,0,0,5.437,1.2H140.45Zm-43.3-28.014H25.777V17.483H54.34C69,17.483,80.226,20.6,87.7,26.69c7.819,6.356,11.775,15.453,11.775,27a42.2,42.2,0,0,1-2.8,15.61,34.1,34.1,0,0,1-8.719,12.751,40.659,40.659,0,0,1-14.475,8.237,62.126,62.126,0,0,1-19.671,2.836" fill="#79257b"/>
          <path id="Path_8" data-name="Path 8" d="M93,115.08h0c1.543,2.028,2.2,2.887,2.366,3.127L93,115.08" fill="#79257b"/>
          <path id="Path_9" data-name="Path 9" d="M95.364,118.207c.057.084.074.084,0,0" fill="#79257b"/>
        </g>
      </g>
      <g id="Group_3" data-name="Group 3">
        <path id="Path_10" data-name="Path 10" d="M954.959,39.1a23.993,23.993,0,0,1,.865-6.467A24.384,24.384,0,0,1,967.01,18.111a24.714,24.714,0,0,1,5.8-2.449,23.827,23.827,0,0,1,6.451-.865,24.229,24.229,0,0,1,12.3,3.314,24.9,24.9,0,0,1,4.929,3.805,24.075,24.075,0,0,1,7.137,17.18,23.868,23.868,0,0,1-.865,6.433,24.02,24.02,0,0,1-6.272,10.712,24.783,24.783,0,0,1-4.929,3.805,24.217,24.217,0,0,1-12.3,3.315,23.875,23.875,0,0,1-6.434-.865,24.522,24.522,0,0,1-5.814-2.45,24.213,24.213,0,0,1-4.932-3.805,24.274,24.274,0,0,1-6.254-10.7A23.808,23.808,0,0,1,954.959,39.1Zm5.422,0a20.448,20.448,0,0,0,1.453,7.74,19.578,19.578,0,0,0,4,6.254,18.572,18.572,0,0,0,5.994,4.18,18.207,18.207,0,0,0,7.43,1.519,18.42,18.42,0,0,0,7.037-1.34,18.872,18.872,0,0,0,5.83-3.722H985.07a2.563,2.563,0,0,1-2.48-1.274l-3.006-7.545a2.486,2.486,0,0,0-.768-.8,2.347,2.347,0,0,0-1.191-.245H976.58v9.864h-8.754V24.3h11.5a23.581,23.581,0,0,1,5.635.588,11.047,11.047,0,0,1,3.887,1.7,6.713,6.713,0,0,1,2.236,2.743,9.162,9.162,0,0,1,.719,3.723,10.5,10.5,0,0,1-.326,2.63,8.228,8.228,0,0,1-1,2.318,7.764,7.764,0,0,1-1.731,1.911,9.294,9.294,0,0,1-2.531,1.4,5.252,5.252,0,0,1,1.6,1.257,8.7,8.7,0,0,1,1.176,1.846l4.049,8.394a19.531,19.531,0,0,0,3.887-6.141,20.15,20.15,0,0,0,1.4-7.576,20.849,20.849,0,0,0-.67-5.325,20.413,20.413,0,0,0-1.892-4.751A19.541,19.541,0,0,0,992.811,25a18.446,18.446,0,0,0-3.854-3.087,19.093,19.093,0,0,0-4.572-1.976,18.557,18.557,0,0,0-5.127-.7,18.055,18.055,0,0,0-7.43,1.535A18.573,18.573,0,0,0,965.834,25a19.867,19.867,0,0,0-4,6.319A20.694,20.694,0,0,0,960.381,39.1Zm16.2-1.243h2.09a9.79,9.79,0,0,0,2.465-.244,2.988,2.988,0,0,0,1.355-.7,2.051,2.051,0,0,0,.572-1.159,9.842,9.842,0,0,0,.114-1.584,8.437,8.437,0,0,0-.114-1.486,2.162,2.162,0,0,0-.505-1.078,2.454,2.454,0,0,0-1.161-.669,7.493,7.493,0,0,0-2.074-.23H976.58Z" fill="#79257b"/>
      </g>
    </g>
  </g>
</svg>
