<svg width="100" height="72" viewBox="0 0 100 72" fill="none" xmlns="http://www.w3.org/2000/svg">
<path d="M88.8889 0H11.1111C8.16426 0 5.33811 1.16703 3.25437 3.24436C1.17063 5.32168 0 8.13914 0 11.0769L0 36H100V11.0769C100 8.13914 98.8294 5.32168 96.7456 3.24436C94.6619 1.16703 91.8357 0 88.8889 0Z" fill="#DC1F26"/>
<path d="M100 59.5385C100 62.313 98.8294 64.974 96.7456 66.9359C94.6619 68.8978 91.8357 70 88.8889 70H11.1111C8.16426 70 5.33811 68.8978 3.25437 66.9359C1.17063 64.974 0 62.313 0 59.5385V36H100V59.5385Z" fill="#EEEEEE"/>
</svg>
